<?xml version="1.0" encoding="utf-8"?>
<!-- Generator: Adobe Illustrator 24.3.0, SVG Export Plug-In . SVG Version: 6.00 Build 0)  -->
<svg version="1.1" id="katman_1" xmlns="http://www.w3.org/2000/svg" xmlns:xlink="http://www.w3.org/1999/xlink" x="0px" y="0px"
	 viewBox="0 0 542.4 397.2" style="enable-background:new 0 0 542.4 397.2;" xml:space="preserve">
<style type="text/css">
	.st0{fill:#FFFFFF;}
</style>
<rect x="13.2" y="130.9" width="521.9" height="109.3"/>
<g>
	<g>
		<path d="M36.3,92.6c-3.7,0-6.8-0.8-9.3-2.4c-2.5-1.6-4.3-3.7-5.3-6.5l6.3-3.5c1.4,3.7,4.3,5.5,8.5,5.5c2,0,3.6-0.4,4.5-1.1
			c1-0.7,1.4-1.6,1.4-2.7c0-1.3-0.6-2.2-1.7-2.9c-1.2-0.7-3.3-1.5-6.3-2.3c-1.7-0.5-3.1-1-4.2-1.4c-1.1-0.5-2.3-1.1-3.4-1.9
			c-1.1-0.8-2-1.8-2.6-3c-0.6-1.2-0.9-2.7-0.9-4.3c0-3.2,1.2-5.8,3.6-7.8c2.4-1.9,5.3-2.9,8.6-2.9c3,0,5.6,0.7,7.9,2.1
			c2.3,1.4,4.1,3.4,5.3,5.9l-6.1,3.4c-1.5-3.1-3.9-4.6-7.1-4.6c-1.5,0-2.7,0.3-3.6,1c-0.9,0.7-1.3,1.5-1.3,2.6c0,1.1,0.5,2,1.5,2.7
			c1,0.7,2.8,1.5,5.6,2.3c1.1,0.3,2,0.6,2.6,0.8c0.6,0.2,1.4,0.5,2.4,0.9c1,0.4,1.8,0.8,2.3,1.1c0.5,0.3,1.2,0.8,1.9,1.4
			c0.7,0.6,1.2,1.2,1.6,1.8c0.4,0.6,0.7,1.4,1,2.2c0.3,0.9,0.4,1.8,0.4,2.8c0,3.3-1.2,5.9-3.7,7.9C43.5,91.6,40.3,92.6,36.3,92.6z"
			/>
		<path d="M77.8,56v6.8h-10v29.1h-7.3V62.8h-10V56H77.8z"/>
		<path d="M103.5,91.9l-2.4-6.5H85.9l-2.2,6.5h-7.9l13-35.9h9.1L111,91.9H103.5z M88.3,78.8h10.4l-5.4-14.6L88.3,78.8z"/>
		<path d="M134.9,91.9l-7.5-12.4h-5.5v12.4h-7.3V56h14.8c3.4,0,6.3,1.2,8.7,3.5c2.4,2.3,3.6,5.1,3.6,8.4c0,2.2-0.7,4.3-2,6.2
			c-1.3,1.9-3,3.3-5.2,4.3l8.2,13.5H134.9z M121.9,62.6v10.6h7.5c1.4,0,2.6-0.5,3.6-1.6c1-1,1.5-2.3,1.5-3.8c0-1.5-0.5-2.7-1.5-3.7
			c-1-1-2.2-1.5-3.6-1.5H121.9z"/>
		<path d="M159.2,92.6c-3.7,0-6.8-0.8-9.3-2.4c-2.5-1.6-4.3-3.7-5.3-6.5l6.3-3.5c1.4,3.7,4.3,5.5,8.5,5.5c2,0,3.6-0.4,4.5-1.1
			s1.4-1.6,1.4-2.7c0-1.3-0.6-2.2-1.7-2.9c-1.2-0.7-3.3-1.5-6.3-2.3c-1.7-0.5-3.1-1-4.2-1.4c-1.1-0.5-2.3-1.1-3.4-1.9
			c-1.1-0.8-2-1.8-2.6-3c-0.6-1.2-0.9-2.7-0.9-4.3c0-3.2,1.2-5.8,3.6-7.8c2.4-1.9,5.3-2.9,8.6-2.9c3,0,5.6,0.7,7.9,2.1
			c2.3,1.4,4.1,3.4,5.3,5.9l-6.1,3.4c-1.5-3.1-3.9-4.6-7.1-4.6c-1.5,0-2.7,0.3-3.6,1c-0.9,0.7-1.3,1.5-1.3,2.6c0,1.1,0.5,2,1.5,2.7
			c1,0.7,2.8,1.5,5.6,2.3c1.1,0.3,2,0.6,2.6,0.8c0.6,0.2,1.4,0.5,2.4,0.9c1,0.4,1.8,0.8,2.3,1.1c0.5,0.3,1.2,0.8,1.9,1.4
			c0.7,0.6,1.2,1.2,1.6,1.8c0.4,0.6,0.7,1.4,1,2.2c0.3,0.9,0.4,1.8,0.4,2.8c0,3.3-1.2,5.9-3.7,7.9C166.4,91.6,163.2,92.6,159.2,92.6
			z"/>
		<path d="M269.6,92.6c-3.7,0-6.8-0.8-9.3-2.4c-2.5-1.6-4.3-3.7-5.3-6.5l6.3-3.5c1.4,3.7,4.3,5.5,8.5,5.5c2,0,3.6-0.4,4.5-1.1
			s1.4-1.6,1.4-2.7c0-1.3-0.6-2.2-1.7-2.9c-1.2-0.7-3.3-1.5-6.3-2.3c-1.7-0.5-3.1-1-4.2-1.4c-1.1-0.5-2.3-1.1-3.4-1.9
			c-1.1-0.8-2-1.8-2.6-3c-0.6-1.2-0.9-2.7-0.9-4.3c0-3.2,1.2-5.8,3.6-7.8c2.4-1.9,5.3-2.9,8.6-2.9c3,0,5.6,0.7,7.9,2.1
			c2.3,1.4,4.1,3.4,5.3,5.9l-6.2,3.4c-1.5-3.1-3.9-4.6-7.1-4.6c-1.5,0-2.7,0.3-3.6,1c-0.9,0.7-1.3,1.5-1.3,2.6c0,1.1,0.5,2,1.5,2.7
			c1,0.7,2.8,1.5,5.6,2.3c1.1,0.3,2,0.6,2.6,0.8c0.6,0.2,1.4,0.5,2.4,0.9c1,0.4,1.8,0.8,2.3,1.1c0.5,0.3,1.2,0.8,1.9,1.4
			c0.7,0.6,1.2,1.2,1.6,1.8c0.4,0.6,0.7,1.4,1,2.2c0.3,0.9,0.4,1.8,0.4,2.8c0,3.3-1.2,5.9-3.7,7.9C276.9,91.6,273.6,92.6,269.6,92.6
			z"/>
		<path d="M301.5,56c3.6,0,6.6,1.2,9,3.5c2.4,2.3,3.7,5.2,3.7,8.6c0,3.4-1.2,6.2-3.7,8.6c-2.4,2.3-5.4,3.5-9,3.5h-6.5v11.8h-7.3V56
			H301.5z M301.5,73.5c1.6,0,2.8-0.5,3.9-1.6c1-1,1.5-2.3,1.5-3.9c0-1.6-0.5-2.9-1.5-3.9c-1-1-2.3-1.5-3.9-1.5h-6.5v10.9H301.5z"/>
		<path d="M349.9,87.2c-3.7,3.6-8.3,5.4-13.7,5.4c-5.4,0-9.9-1.8-13.7-5.4c-3.7-3.6-5.6-8-5.6-13.2c0-5.2,1.9-9.6,5.6-13.2
			c3.7-3.6,8.3-5.4,13.7-5.4c5.4,0,9.9,1.8,13.7,5.4c3.7,3.6,5.6,8,5.6,13.2C355.5,79.1,353.6,83.6,349.9,87.2z M327.6,82.3
			c2.3,2.2,5.1,3.3,8.5,3.3c3.4,0,6.2-1.1,8.5-3.3c2.3-2.2,3.4-5,3.4-8.4c0-3.4-1.1-6.2-3.4-8.5c-2.3-2.2-5.1-3.3-8.5-3.3
			c-3.4,0-6.2,1.1-8.5,3.3c-2.3,2.2-3.4,5-3.4,8.5C324.2,77.3,325.3,80.1,327.6,82.3z"/>
		<path d="M382.1,56h7.3v35.9h-5.6l-15.9-21.9v21.9h-7.3V56h5.6l15.9,21.8V56z"/>
		<path d="M408.4,92.6c-3.7,0-6.8-0.8-9.3-2.4c-2.5-1.6-4.3-3.7-5.3-6.5l6.3-3.5c1.4,3.7,4.3,5.5,8.5,5.5c2,0,3.6-0.4,4.5-1.1
			c1-0.7,1.4-1.6,1.4-2.7c0-1.3-0.6-2.2-1.7-2.9c-1.2-0.7-3.3-1.5-6.3-2.3c-1.7-0.5-3.1-1-4.2-1.4c-1.1-0.5-2.3-1.1-3.4-1.9
			c-1.1-0.8-2-1.8-2.6-3c-0.6-1.2-0.9-2.7-0.9-4.3c0-3.2,1.2-5.8,3.6-7.8c2.4-1.9,5.3-2.9,8.6-2.9c3,0,5.6,0.7,7.9,2.1
			c2.3,1.4,4.1,3.4,5.3,5.9l-6.2,3.4c-1.5-3.1-3.9-4.6-7.1-4.6c-1.5,0-2.7,0.3-3.6,1c-0.9,0.7-1.3,1.5-1.3,2.6c0,1.1,0.5,2,1.5,2.7
			c1,0.7,2.8,1.5,5.6,2.3c1.1,0.3,2,0.6,2.6,0.8c0.6,0.2,1.4,0.5,2.4,0.9c1,0.4,1.8,0.8,2.3,1.1c0.5,0.3,1.2,0.8,1.9,1.4
			c0.7,0.6,1.2,1.2,1.6,1.8c0.4,0.6,0.7,1.4,1,2.2c0.3,0.9,0.4,1.8,0.4,2.8c0,3.3-1.2,5.9-3.7,7.9C415.6,91.6,412.4,92.6,408.4,92.6
			z"/>
		<path d="M457.6,87.2c-3.7,3.6-8.3,5.4-13.7,5.4s-9.9-1.8-13.7-5.4c-3.7-3.6-5.6-8-5.6-13.2c0-5.2,1.9-9.6,5.6-13.2
			c3.7-3.6,8.3-5.4,13.7-5.4s9.9,1.8,13.7,5.4c3.7,3.6,5.6,8,5.6,13.2C463.2,79.1,461.3,83.6,457.6,87.2z M435.4,82.3
			c2.3,2.2,5.1,3.3,8.5,3.3c3.4,0,6.2-1.1,8.5-3.3c2.3-2.2,3.4-5,3.4-8.4c0-3.4-1.1-6.2-3.4-8.5c-2.3-2.2-5.1-3.3-8.5-3.3
			c-3.4,0-6.2,1.1-8.5,3.3c-2.3,2.2-3.4,5-3.4,8.5C431.9,77.3,433.1,80.1,435.4,82.3z"/>
		<path d="M488.7,91.9l-7.5-12.4h-5.5v12.4h-7.3V56h14.8c3.4,0,6.3,1.2,8.7,3.5c2.4,2.3,3.6,5.1,3.6,8.4c0,2.2-0.7,4.3-2,6.2
			c-1.3,1.9-3,3.3-5.2,4.3l8.2,13.5H488.7z M475.7,62.6v10.6h7.5c1.4,0,2.6-0.5,3.6-1.6c1-1,1.5-2.3,1.5-3.8c0-1.5-0.5-2.7-1.5-3.7
			c-1-1-2.2-1.5-3.6-1.5H475.7z"/>
		<path d="M513,92.6c-3.7,0-6.8-0.8-9.3-2.4c-2.5-1.6-4.3-3.7-5.3-6.5l6.3-3.5c1.4,3.7,4.3,5.5,8.5,5.5c2,0,3.6-0.4,4.5-1.1
			c1-0.7,1.4-1.6,1.4-2.7c0-1.3-0.6-2.2-1.7-2.9c-1.2-0.7-3.3-1.5-6.3-2.3c-1.7-0.5-3.1-1-4.2-1.4c-1.1-0.5-2.3-1.1-3.4-1.9
			c-1.1-0.8-2-1.8-2.6-3c-0.6-1.2-0.9-2.7-0.9-4.3c0-3.2,1.2-5.8,3.6-7.8c2.4-1.9,5.3-2.9,8.6-2.9c3,0,5.6,0.7,7.9,2.1
			c2.3,1.4,4.1,3.4,5.3,5.9l-6.2,3.4c-1.5-3.1-3.9-4.6-7.1-4.6c-1.5,0-2.7,0.3-3.6,1c-0.9,0.7-1.3,1.5-1.3,2.6c0,1.1,0.5,2,1.5,2.7
			c1,0.7,2.8,1.5,5.6,2.3c1.1,0.3,2,0.6,2.6,0.8c0.6,0.2,1.4,0.5,2.4,0.9c1,0.4,1.8,0.8,2.3,1.1c0.5,0.3,1.2,0.8,1.9,1.4
			c0.7,0.6,1.2,1.2,1.6,1.8c0.4,0.6,0.7,1.4,1,2.2c0.3,0.9,0.4,1.8,0.4,2.8c0,3.3-1.2,5.9-3.7,7.9C520.2,91.6,517,92.6,513,92.6z"/>
	</g>
	<path d="M243.1,34c0,26.6,0,53.2,0,79.8c-19.5,0-38.9,0-58.4,0c0-26.6,0-53.2,0-79.8C204.1,34,223.6,34,243.1,34z M218.3,39.1
		c-0.1,0-0.1,0-0.2,0c-0.1,0.1-0.1,0.3-0.2,0.4c-2.1,5.9-4.3,11.9-6.4,17.9c-0.8,2.2-0.6,2.8,1.2,4.3c3.1,2.6,6.3,5.3,9.4,7.9
		c0.9,0.7,1.2,1.6,1.3,2.7c0,1.6,0.1,3.1,0.1,4.7c0,0.5-0.1,1-0.2,1.7c-0.6-0.3-1-0.5-1.3-0.8c-4.1-3.5-8.3-7.1-12.4-10.6
		c-2-1.7-4-3.5-6-5.1c-1.3-1.1-2.9-0.7-3.5,0.9c-0.2,0.5-0.3,1-0.3,1.6c0,4.8,0.1,9.6,0.2,14.4c0,1.3,0.5,2.3,1.4,3.1
		c2.2,1.8,4.4,3.7,6.6,5.5c1.5,1.2,2.2,2.8,2.2,4.8c0,3.6,0.1,7.2,0.1,10.9c0,1.9,0,3.8,0,5.7c0.3-0.1,0.4-0.3,0.4-0.4
		c2.1-5.5,4.2-11.1,6.3-16.6c0.8-2,0.3-3.7-1.3-5.1c-2.6-2.3-5.1-4.7-7.9-6.8c-1.9-1.5-2.9-3.1-2.6-5.5c0.1-1.1,0-2.3,0-3.6
		c0.4,0.3,0.8,0.6,1.1,0.8c3.9,3.4,7.7,6.8,11.6,10.2c2.4,2.1,4.9,4.2,7.3,6.3c1.3,1.1,2.8,0.7,3.4-0.9c0.2-0.6,0.3-1.3,0.3-1.9
		c0-5.5-0.1-10.9-0.2-16.4c0-1.5-0.6-2.7-1.8-3.6c-2.2-1.8-4.4-3.6-6.7-5.4c-1.1-0.9-1.7-1.9-1.7-3.3c0-1.4,0-2.8,0-4.2
		c0-3.9,0-7.8-0.1-11.6C218.4,40.3,218.3,39.7,218.3,39.1z"/>
</g>
<g>
	<g>
		<path class="st0" d="M36.3,204.1c-3.7,0-6.8-0.8-9.3-2.4c-2.5-1.6-4.3-3.7-5.3-6.5l6.3-3.5c1.4,3.7,4.3,5.5,8.5,5.5
			c2,0,3.6-0.4,4.5-1.1c1-0.7,1.4-1.6,1.4-2.7c0-1.3-0.6-2.2-1.7-2.9c-1.2-0.7-3.3-1.5-6.3-2.3c-1.7-0.5-3.1-1-4.2-1.4
			c-1.1-0.5-2.3-1.1-3.4-1.9c-1.1-0.8-2-1.8-2.6-3c-0.6-1.2-0.9-2.7-0.9-4.3c0-3.2,1.2-5.8,3.6-7.8c2.4-1.9,5.3-2.9,8.6-2.9
			c3,0,5.6,0.7,7.9,2.1c2.3,1.4,4.1,3.4,5.3,5.9l-6.1,3.4c-1.5-3.1-3.9-4.6-7.1-4.6c-1.5,0-2.7,0.3-3.6,1c-0.9,0.7-1.3,1.5-1.3,2.6
			c0,1.1,0.5,2,1.5,2.7c1,0.7,2.8,1.5,5.6,2.3c1.1,0.3,2,0.6,2.6,0.8c0.6,0.2,1.4,0.5,2.4,0.9c1,0.4,1.8,0.8,2.3,1.1
			c0.5,0.3,1.2,0.8,1.9,1.4c0.7,0.6,1.2,1.2,1.6,1.8c0.4,0.6,0.7,1.4,1,2.2c0.3,0.9,0.4,1.8,0.4,2.8c0,3.3-1.2,5.9-3.7,7.9
			C43.5,203.2,40.3,204.1,36.3,204.1z"/>
		<path class="st0" d="M77.8,167.6v6.8h-10v29.1h-7.3v-29.1h-10v-6.8H77.8z"/>
		<path class="st0" d="M103.5,203.4l-2.4-6.5H85.9l-2.2,6.5h-7.9l13-35.9h9.1l13.1,35.9H103.5z M88.3,190.4h10.4l-5.4-14.6
			L88.3,190.4z"/>
		<path class="st0" d="M134.9,203.4l-7.5-12.4h-5.5v12.4h-7.3v-35.9h14.8c3.4,0,6.3,1.2,8.7,3.5c2.4,2.3,3.6,5.1,3.6,8.4
			c0,2.2-0.7,4.3-2,6.2c-1.3,1.9-3,3.3-5.2,4.3l8.2,13.5H134.9z M121.9,174.2v10.6h7.5c1.4,0,2.6-0.5,3.6-1.6c1-1,1.5-2.3,1.5-3.8
			c0-1.5-0.5-2.7-1.5-3.7c-1-1-2.2-1.5-3.6-1.5H121.9z"/>
		<path class="st0" d="M159.2,204.1c-3.7,0-6.8-0.8-9.3-2.4c-2.5-1.6-4.3-3.7-5.3-6.5l6.3-3.5c1.4,3.7,4.3,5.5,8.5,5.5
			c2,0,3.6-0.4,4.5-1.1s1.4-1.6,1.4-2.7c0-1.3-0.6-2.2-1.7-2.9c-1.2-0.7-3.3-1.5-6.3-2.3c-1.7-0.5-3.1-1-4.2-1.4
			c-1.1-0.5-2.3-1.1-3.4-1.9c-1.1-0.8-2-1.8-2.6-3c-0.6-1.2-0.9-2.7-0.9-4.3c0-3.2,1.2-5.8,3.6-7.8c2.4-1.9,5.3-2.9,8.6-2.9
			c3,0,5.6,0.7,7.9,2.1c2.3,1.4,4.1,3.4,5.3,5.9l-6.1,3.4c-1.5-3.1-3.9-4.6-7.1-4.6c-1.5,0-2.7,0.3-3.6,1c-0.9,0.7-1.3,1.5-1.3,2.6
			c0,1.1,0.5,2,1.5,2.7c1,0.7,2.8,1.5,5.6,2.3c1.1,0.3,2,0.6,2.6,0.8c0.6,0.2,1.4,0.5,2.4,0.9c1,0.4,1.8,0.8,2.3,1.1
			c0.5,0.3,1.2,0.8,1.9,1.4c0.7,0.6,1.2,1.2,1.6,1.8c0.4,0.6,0.7,1.4,1,2.2c0.3,0.9,0.4,1.8,0.4,2.8c0,3.3-1.2,5.9-3.7,7.9
			C166.4,203.2,163.2,204.1,159.2,204.1z"/>
		<path class="st0" d="M269.6,204.1c-3.7,0-6.8-0.8-9.3-2.4c-2.5-1.6-4.3-3.7-5.3-6.5l6.3-3.5c1.4,3.7,4.3,5.5,8.5,5.5
			c2,0,3.6-0.4,4.5-1.1s1.4-1.6,1.4-2.7c0-1.3-0.6-2.2-1.7-2.9c-1.2-0.7-3.3-1.5-6.3-2.3c-1.7-0.5-3.1-1-4.2-1.4
			c-1.1-0.5-2.3-1.1-3.4-1.9c-1.1-0.8-2-1.8-2.6-3c-0.6-1.2-0.9-2.7-0.9-4.3c0-3.2,1.2-5.8,3.6-7.8c2.4-1.9,5.3-2.9,8.6-2.9
			c3,0,5.6,0.7,7.9,2.1c2.3,1.4,4.1,3.4,5.3,5.9l-6.2,3.4c-1.5-3.1-3.9-4.6-7.1-4.6c-1.5,0-2.7,0.3-3.6,1c-0.9,0.7-1.3,1.5-1.3,2.6
			c0,1.1,0.5,2,1.5,2.7c1,0.7,2.8,1.5,5.6,2.3c1.1,0.3,2,0.6,2.6,0.8c0.6,0.2,1.4,0.5,2.4,0.9c1,0.4,1.8,0.8,2.3,1.1
			c0.5,0.3,1.2,0.8,1.9,1.4c0.7,0.6,1.2,1.2,1.6,1.8c0.4,0.6,0.7,1.4,1,2.2c0.3,0.9,0.4,1.8,0.4,2.8c0,3.3-1.2,5.9-3.7,7.9
			C276.9,203.2,273.6,204.1,269.6,204.1z"/>
		<path class="st0" d="M301.5,167.6c3.6,0,6.6,1.2,9,3.5c2.4,2.3,3.7,5.2,3.7,8.6s-1.2,6.2-3.7,8.6c-2.4,2.3-5.4,3.5-9,3.5h-6.5
			v11.8h-7.3v-35.9H301.5z M301.5,185c1.6,0,2.8-0.5,3.9-1.6c1-1,1.5-2.3,1.5-3.9c0-1.6-0.5-2.9-1.5-3.9c-1-1-2.3-1.5-3.9-1.5h-6.5
			V185H301.5z"/>
		<path class="st0" d="M349.9,198.7c-3.7,3.6-8.3,5.4-13.7,5.4c-5.4,0-9.9-1.8-13.7-5.4c-3.7-3.6-5.6-8-5.6-13.2s1.9-9.6,5.6-13.2
			c3.7-3.6,8.3-5.4,13.7-5.4c5.4,0,9.9,1.8,13.7,5.4c3.7,3.6,5.6,8,5.6,13.2S353.6,195.1,349.9,198.7z M327.6,193.9
			c2.3,2.2,5.1,3.3,8.5,3.3c3.4,0,6.2-1.1,8.5-3.3c2.3-2.2,3.4-5,3.4-8.4c0-3.4-1.1-6.2-3.4-8.5c-2.3-2.2-5.1-3.3-8.5-3.3
			c-3.4,0-6.2,1.1-8.5,3.3c-2.3,2.2-3.4,5-3.4,8.5C324.2,188.9,325.3,191.7,327.6,193.9z"/>
		<path class="st0" d="M382.1,167.6h7.3v35.9h-5.6l-15.9-21.9v21.9h-7.3v-35.9h5.6l15.9,21.8V167.6z"/>
		<path class="st0" d="M408.4,204.1c-3.7,0-6.8-0.8-9.3-2.4c-2.5-1.6-4.3-3.7-5.3-6.5l6.3-3.5c1.4,3.7,4.3,5.5,8.5,5.5
			c2,0,3.6-0.4,4.5-1.1c1-0.7,1.4-1.6,1.4-2.7c0-1.3-0.6-2.2-1.7-2.9c-1.2-0.7-3.3-1.5-6.3-2.3c-1.7-0.5-3.1-1-4.2-1.4
			c-1.1-0.5-2.3-1.1-3.4-1.9c-1.1-0.8-2-1.8-2.6-3c-0.6-1.2-0.9-2.7-0.9-4.3c0-3.2,1.2-5.8,3.6-7.8c2.4-1.9,5.3-2.9,8.6-2.9
			c3,0,5.6,0.7,7.9,2.1c2.3,1.4,4.1,3.4,5.3,5.9l-6.2,3.4c-1.5-3.1-3.9-4.6-7.1-4.6c-1.5,0-2.7,0.3-3.6,1c-0.9,0.7-1.3,1.5-1.3,2.6
			c0,1.1,0.5,2,1.5,2.7c1,0.7,2.8,1.5,5.6,2.3c1.1,0.3,2,0.6,2.6,0.8c0.6,0.2,1.4,0.5,2.4,0.9c1,0.4,1.8,0.8,2.3,1.1
			c0.5,0.3,1.2,0.8,1.9,1.4c0.7,0.6,1.2,1.2,1.6,1.8c0.4,0.6,0.7,1.4,1,2.2c0.3,0.9,0.4,1.8,0.4,2.8c0,3.3-1.2,5.9-3.7,7.9
			C415.6,203.2,412.4,204.1,408.4,204.1z"/>
		<path class="st0" d="M457.6,198.7c-3.7,3.6-8.3,5.4-13.7,5.4s-9.9-1.8-13.7-5.4c-3.7-3.6-5.6-8-5.6-13.2s1.9-9.6,5.6-13.2
			c3.7-3.6,8.3-5.4,13.7-5.4s9.9,1.8,13.7,5.4c3.7,3.6,5.6,8,5.6,13.2S461.3,195.1,457.6,198.7z M435.4,193.9
			c2.3,2.2,5.1,3.3,8.5,3.3c3.4,0,6.2-1.1,8.5-3.3c2.3-2.2,3.4-5,3.4-8.4c0-3.4-1.1-6.2-3.4-8.5c-2.3-2.2-5.1-3.3-8.5-3.3
			c-3.4,0-6.2,1.1-8.5,3.3c-2.3,2.2-3.4,5-3.4,8.5C431.9,188.9,433.1,191.7,435.4,193.9z"/>
		<path class="st0" d="M488.7,203.4l-7.5-12.4h-5.5v12.4h-7.3v-35.9h14.8c3.4,0,6.3,1.2,8.7,3.5c2.4,2.3,3.6,5.1,3.6,8.4
			c0,2.2-0.7,4.3-2,6.2c-1.3,1.9-3,3.3-5.2,4.3l8.2,13.5H488.7z M475.7,174.2v10.6h7.5c1.4,0,2.6-0.5,3.6-1.6c1-1,1.5-2.3,1.5-3.8
			c0-1.5-0.5-2.7-1.5-3.7c-1-1-2.2-1.5-3.6-1.5H475.7z"/>
		<path class="st0" d="M513,204.1c-3.7,0-6.8-0.8-9.3-2.4c-2.5-1.6-4.3-3.7-5.3-6.5l6.3-3.5c1.4,3.7,4.3,5.5,8.5,5.5
			c2,0,3.6-0.4,4.5-1.1c1-0.7,1.4-1.6,1.4-2.7c0-1.3-0.6-2.2-1.7-2.9c-1.2-0.7-3.3-1.5-6.3-2.3c-1.7-0.5-3.1-1-4.2-1.4
			c-1.1-0.5-2.3-1.1-3.4-1.9c-1.1-0.8-2-1.8-2.6-3c-0.6-1.2-0.9-2.7-0.9-4.3c0-3.2,1.2-5.8,3.6-7.8c2.4-1.9,5.3-2.9,8.6-2.9
			c3,0,5.6,0.7,7.9,2.1c2.3,1.4,4.1,3.4,5.3,5.9l-6.2,3.4c-1.5-3.1-3.9-4.6-7.1-4.6c-1.5,0-2.7,0.3-3.6,1c-0.9,0.7-1.3,1.5-1.3,2.6
			c0,1.1,0.5,2,1.5,2.7c1,0.7,2.8,1.5,5.6,2.3c1.1,0.3,2,0.6,2.6,0.8c0.6,0.2,1.4,0.5,2.4,0.9c1,0.4,1.8,0.8,2.3,1.1
			c0.5,0.3,1.2,0.8,1.9,1.4c0.7,0.6,1.2,1.2,1.6,1.8c0.4,0.6,0.7,1.4,1,2.2c0.3,0.9,0.4,1.8,0.4,2.8c0,3.3-1.2,5.9-3.7,7.9
			C520.2,203.2,517,204.1,513,204.1z"/>
	</g>
	<path class="st0" d="M243.1,145.6c0,26.6,0,53.2,0,79.8c-19.5,0-38.9,0-58.4,0c0-26.6,0-53.2,0-79.8
		C204.1,145.6,223.6,145.6,243.1,145.6z M218.3,150.7c-0.1,0-0.1,0-0.2,0c-0.1,0.1-0.1,0.3-0.2,0.4c-2.1,5.9-4.3,11.9-6.4,17.9
		c-0.8,2.2-0.6,2.8,1.2,4.3c3.1,2.6,6.3,5.3,9.4,7.9c0.9,0.7,1.2,1.6,1.3,2.7c0,1.6,0.1,3.1,0.1,4.7c0,0.5-0.1,1-0.2,1.7
		c-0.6-0.3-1-0.5-1.3-0.8c-4.1-3.5-8.3-7.1-12.4-10.6c-2-1.7-4-3.5-6-5.1c-1.3-1.1-2.9-0.7-3.5,0.9c-0.2,0.5-0.3,1-0.3,1.6
		c0,4.8,0.1,9.6,0.2,14.4c0,1.3,0.5,2.3,1.4,3.1c2.2,1.8,4.4,3.7,6.6,5.5c1.5,1.2,2.2,2.8,2.2,4.8c0,3.6,0.1,7.2,0.1,10.9
		c0,1.9,0,3.8,0,5.7c0.3-0.1,0.4-0.3,0.4-0.4c2.1-5.5,4.2-11.1,6.3-16.6c0.8-2,0.3-3.7-1.3-5.1c-2.6-2.3-5.1-4.7-7.9-6.8
		c-1.9-1.5-2.9-3.1-2.6-5.5c0.1-1.1,0-2.3,0-3.6c0.4,0.3,0.8,0.6,1.1,0.8c3.9,3.4,7.7,6.8,11.6,10.2c2.4,2.1,4.9,4.2,7.3,6.3
		c1.3,1.1,2.8,0.7,3.4-0.9c0.2-0.6,0.3-1.3,0.3-1.9c0-5.5-0.1-10.9-0.2-16.4c0-1.5-0.6-2.7-1.8-3.6c-2.2-1.8-4.4-3.6-6.7-5.4
		c-1.1-0.9-1.7-1.9-1.7-3.3c0-1.4,0-2.8,0-4.2c0-3.9,0-7.8-0.1-11.6C218.4,151.9,218.3,151.3,218.3,150.7z"/>
</g>
</svg>
